<svg xmlns="http://www.w3.org/2000/svg" width="128" height="128" viewBox="0 0 128 128">
  <defs>
    <linearGradient id="grad" x1="0%" y1="0%" x2="100%" y2="100%">
      <stop offset="0%" style="stop-color:#3563E9;stop-opacity:1" />
      <stop offset="100%" style="stop-color:#2050d3;stop-opacity:1" />
    </linearGradient>
  </defs>
  <rect x="8" y="8" width="112" height="112" rx="24" fill="url(#grad)" />
  <g fill="white" transform="translate(32, 32)">
    <path d="M56,8H8C3.6,8,0,11.6,0,16v32c0,4.4,3.6,8,8,8h48c4.4,0,8-3.6,8-8V16C64,11.6,60.4,8,56,8z M56,48H8V16h48V48z" />
    <rect x="16" y="24" width="32" height="4" />
    <rect x="16" y="32" width="32" height="4" />
    <path d="M59.3,10.7l-8-8c-0.4-0.4-1-0.4-1.4,0l-8,8c-0.4,0.4-0.4,1,0,1.4c0.4,0.4,1,0.4,1.4,0L48,7.4V28c0,0.6,0.4,1,1,1s1-0.4,1-1 V7.4l4.7,4.7c0.2,0.2,0.5,0.3,0.7,0.3s0.5-0.1,0.7-0.3C59.7,11.7,59.7,11.1,59.3,10.7z" />
    <path d="M32,56c-0.6,0-1,0.4-1,1v20.6l-4.7-4.7c-0.4-0.4-1-0.4-1.4,0c-0.4,0.4-0.4,1,0,1.4l8,8c0.2,0.2,0.5,0.3,0.7,0.3 s0.5-0.1,0.7-0.3l8-8c0.4-0.4,0.4-1,0-1.4c-0.4-0.4-1-0.4-1.4,0L36,77.6V57C33,56.4,32.6,56,32,56z" />
  </g>
</svg> 